<svg width="24" height="28" viewBox="0 0 24 28" fill="none" xmlns="http://www.w3.org/2000/svg">
    <g clip-path="url(#clip0_1_268)">
        <path
            d="M14.3671 17.0571C14.3671 17.0571 14.5554 16.8687 14.9321 16.492C15.3088 16.1154 15.4971 15.3947 15.4971 14.3299C15.4971 13.2652 15.1204 12.3562 14.3671 11.6028C13.6137 10.8495 12.7047 10.4728 11.64 10.4728C10.5752 10.4728 9.6662 10.8495 8.91285 11.6028C8.1595 12.3562 7.78283 13.2652 7.78283 14.3299C7.78283 15.3947 8.1595 16.3037 8.91285 17.0571C9.6662 17.8104 10.5752 18.1871 11.64 18.1871C12.7047 18.1871 13.6137 17.8104 14.3671 17.0571ZM15.8437 10.1263C15.8437 10.1263 16.1324 10.415 16.71 10.9926C17.2876 11.5702 17.5764 12.6826 17.5764 14.3299C17.5764 15.9773 16.9988 17.3785 15.8437 18.5336C14.6885 19.6888 13.2873 20.2663 11.64 20.2663C9.99265 20.2663 8.59142 19.6888 7.43629 18.5336C6.28115 17.3785 5.70359 15.9773 5.70359 14.3299C5.70359 12.6826 6.28115 11.2814 7.43629 10.1263C8.59142 8.97112 9.99265 8.39355 11.64 8.39355C13.2873 8.39355 14.6885 8.97112 15.8437 10.1263ZM18.7968 7.17313C18.7968 7.17313 18.8646 7.24093 19.0002 7.37654C19.1358 7.51214 19.2036 7.77079 19.2036 8.15248C19.2036 8.53418 19.068 8.86063 18.7968 9.13184C18.5256 9.40304 18.1991 9.53864 17.8174 9.53864C17.4357 9.53864 17.1093 9.40304 16.8381 9.13184C16.5669 8.86063 16.4313 8.53418 16.4313 8.15248C16.4313 7.77079 16.5669 7.44434 16.8381 7.17313C17.1093 6.90193 17.4357 6.76632 17.8174 6.76632C18.1991 6.76632 18.5256 6.90193 18.7968 7.17313ZM12.7926 4.83022C12.7926 4.83022 12.6181 4.83147 12.269 4.83398C11.92 4.8365 11.7103 4.83775 11.64 4.83775C11.5697 4.83775 11.1855 4.83524 10.4873 4.83022C9.78925 4.8252 9.25939 4.8252 8.89778 4.83022C8.53618 4.83524 8.05152 4.85031 7.44382 4.87542C6.83612 4.90053 6.31882 4.95075 5.89192 5.02609C5.46503 5.10142 5.10593 5.19434 4.81464 5.30483C4.3124 5.50572 3.87044 5.79702 3.48874 6.17871C3.10705 6.56041 2.81575 7.00237 2.61486 7.5046C2.50437 7.7959 2.41146 8.15499 2.33612 8.58189C2.26079 9.00879 2.21056 9.52609 2.18545 10.1338C2.16034 10.7415 2.14527 11.2261 2.14025 11.5878C2.13523 11.9494 2.13523 12.4792 2.14025 13.1773C2.14527 13.8754 2.14778 14.2596 2.14778 14.3299C2.14778 14.4003 2.14527 14.7845 2.14025 15.4826C2.13523 16.1807 2.13523 16.7105 2.14025 17.0721C2.14527 17.4337 2.16034 17.9184 2.18545 18.5261C2.21056 19.1338 2.26079 19.6511 2.33612 20.078C2.41146 20.5049 2.50437 20.864 2.61486 21.1553C2.81575 21.6575 3.10705 22.0995 3.48874 22.4812C3.87044 22.8629 4.3124 23.1542 4.81464 23.3551C5.10593 23.4655 5.46503 23.5585 5.89192 23.6338C6.31882 23.7091 6.83612 23.7593 7.44382 23.7845C8.05152 23.8096 8.53618 23.8246 8.89778 23.8297C9.25939 23.8347 9.78925 23.8347 10.4873 23.8297C11.1855 23.8246 11.5697 23.8221 11.64 23.8221C11.7103 23.8221 12.0945 23.8246 12.7926 23.8297C13.4907 23.8347 14.0206 23.8347 14.3822 23.8297C14.7438 23.8246 15.2284 23.8096 15.8361 23.7845C16.4438 23.7593 16.9611 23.7091 17.388 23.6338C17.8149 23.5585 18.174 23.4655 18.4653 23.3551C18.9675 23.1542 19.4095 22.8629 19.7912 22.4812C20.1729 22.0995 20.4642 21.6575 20.6651 21.1553C20.7756 20.864 20.8685 20.5049 20.9438 20.078C21.0192 19.6511 21.0694 19.1338 21.0945 18.5261C21.1196 17.9184 21.1347 17.4337 21.1397 17.0721C21.1447 16.7105 21.1447 16.1807 21.1397 15.4826C21.1347 14.7845 21.1322 14.4003 21.1322 14.3299C21.1322 14.2596 21.1347 13.8754 21.1397 13.1773C21.1447 12.4792 21.1447 11.9494 21.1397 11.5878C21.1347 11.2261 21.1196 10.7415 21.0945 10.1338C21.0694 9.52609 21.0192 9.00879 20.9438 8.58189C20.8685 8.15499 20.7756 7.7959 20.6651 7.5046C20.4642 7.00237 20.1729 6.56041 19.7912 6.17871C19.4095 5.79702 18.9675 5.50572 18.4653 5.30483C18.174 5.19434 17.8149 5.10142 17.388 5.02609C16.9611 4.95075 16.4438 4.90053 15.8361 4.87542C15.2284 4.85031 14.7438 4.83524 14.3822 4.83022C14.0206 4.8252 13.4907 4.8252 12.7926 4.83022ZM23.1361 9.55371C23.1863 10.4376 23.2114 12.0297 23.2114 14.3299C23.2114 16.6302 23.1863 18.2222 23.1361 19.1062C23.0356 21.1955 22.4128 22.8126 21.2678 23.9577C20.1227 25.1028 18.5055 25.7256 16.4162 25.826C15.5323 25.8763 13.9402 25.9014 11.64 25.9014C9.33975 25.9014 7.74767 25.8763 6.86374 25.826C4.77446 25.7256 3.15727 25.1028 2.01218 23.9577C0.867092 22.8126 0.244324 21.1955 0.143877 19.1062C0.0936541 18.2222 0.0685425 16.6302 0.0685425 14.3299C0.0685425 12.0297 0.0936541 10.4376 0.143877 9.55371C0.244324 7.46443 0.867092 5.84724 2.01218 4.70215C3.15727 3.55706 4.77446 2.93429 6.86374 2.83385C7.74767 2.78362 9.33975 2.75851 11.64 2.75851C13.9402 2.75851 15.5323 2.78362 16.4162 2.83385C18.5055 2.93429 20.1227 3.55706 21.2678 4.70215C22.4128 5.84724 23.0356 7.46443 23.1361 9.55371Z"
            fill="#008000" />
    </g>
    <defs>
        <clipPath id="clip0_1_268">
            <rect width="23.16" height="27" fill="white"
                transform="matrix(1 0 0 -1 0.0599976 27.8298)" />
        </clipPath>
    </defs>
</svg>
    