<svg width="15" height="25" viewBox="0 0 15 25" fill="none" xmlns="http://www.w3.org/2000/svg">
    <g clip-path="url(#clip0_1_255)">
        <path
            d="M10.0641 11.4354C10.0641 11.4354 10.2316 11.268 10.5664 10.9332C10.9012 10.5984 11.0686 9.95773 11.0686 9.0113C11.0686 8.06487 10.7338 7.25684 10.0641 6.58719C9.39451 5.91755 8.58647 5.58273 7.64004 5.58273C6.69361 5.58273 5.88558 5.91755 5.21593 6.58719C4.54629 7.25684 4.21147 8.06487 4.21147 9.0113C4.21147 9.95773 4.54629 10.7658 5.21593 11.4354C5.88558 12.1051 6.69361 12.4399 7.64004 12.4399C8.58647 12.4399 9.39451 12.1051 10.0641 11.4354ZM14.4972 9.0113C14.4972 9.98451 14.3499 10.7836 14.0552 11.4086L9.18022 21.7747C9.03736 22.0693 8.82531 22.3015 8.54406 22.4711C8.26281 22.6408 7.96147 22.7256 7.64004 22.7256C7.31861 22.7256 7.01727 22.6408 6.73602 22.4711C6.45477 22.3015 6.24718 22.0693 6.11326 21.7747L1.22486 11.4086C0.930219 10.7836 0.782898 9.98451 0.782898 9.0113C0.782898 7.11844 1.45254 5.50237 2.79183 4.16309C4.13111 2.8238 5.74718 2.15416 7.64004 2.15416C9.5329 2.15416 11.149 2.8238 12.4883 4.16309C13.8275 5.50237 14.4972 7.11844 14.4972 9.0113Z"
            fill="white" />
    </g>
    <defs>
        <clipPath id="clip0_1_255">
            <rect width="13.72" height="24" fill="white"
                transform="matrix(1 0 0 -1 0.780029 24.4399)" />
        </clipPath>
    </defs>
</svg>
    