<svg width="25" height="25" viewBox="0 0 25 25" fill="none" xmlns="http://www.w3.org/2000/svg">
    <g clip-path="url(#clip0_1_310)">
        <path
            d="M24.64 10.1192V20.7531C24.64 21.3424 24.4302 21.8469 24.0106 22.2665C23.5909 22.6862 23.0864 22.896 22.4972 22.896H2.78287C2.19359 22.896 1.68912 22.6862 1.26948 22.2665C0.849836 21.8469 0.640015 21.3424 0.640015 20.7531V10.1192C1.03287 10.5567 1.48376 10.9451 1.99269 11.2844C5.22484 13.4808 7.44359 15.021 8.64894 15.9049C9.15787 16.2799 9.57082 16.5723 9.88778 16.7822C10.2047 16.992 10.6266 17.2063 11.1534 17.425C11.6802 17.6438 12.1713 17.7531 12.6266 17.7531H12.64H12.6534C13.1088 17.7531 13.5998 17.6438 14.1266 17.425C14.6534 17.2063 15.0753 16.992 15.3922 16.7822C15.7092 16.5723 16.1222 16.2799 16.6311 15.9049C18.1489 14.8067 20.3722 13.2665 23.3007 11.2844C23.8097 10.9362 24.2561 10.5478 24.64 10.1192ZM24.64 6.18171C24.64 6.88707 24.4213 7.56117 23.9838 8.20403C23.5463 8.84689 23.0016 9.396 22.3498 9.85135C18.9927 12.1817 16.9034 13.6326 16.082 14.204C15.9927 14.2665 15.803 14.4027 15.5128 14.6125C15.2226 14.8223 14.9815 14.992 14.7896 15.1214C14.5976 15.2509 14.3655 15.396 14.0931 15.5567C13.8208 15.7174 13.5641 15.838 13.3231 15.9183C13.082 15.9987 12.8588 16.0389 12.6534 16.0389H12.64H12.6266C12.4213 16.0389 12.1981 15.9987 11.957 15.9183C11.7159 15.838 11.4592 15.7174 11.1869 15.5567C10.9146 15.396 10.6824 15.2509 10.4905 15.1214C10.2985 14.992 10.0574 14.8223 9.76725 14.6125C9.47707 14.4027 9.28734 14.2665 9.19805 14.204C8.38555 13.6326 7.21591 12.8179 5.68912 11.7598C4.16234 10.7018 3.24716 10.0656 2.94359 9.85135C2.39001 9.47635 1.86769 8.96073 1.37662 8.30448C0.88555 7.64823 0.640015 7.03885 0.640015 6.47635C0.640015 5.77992 0.825283 5.19957 1.19582 4.73528C1.56635 4.271 2.09537 4.03885 2.78287 4.03885H22.4972C23.0775 4.03885 23.5797 4.24867 24.0039 4.66832C24.428 5.08796 24.64 5.59242 24.64 6.18171Z"
            fill="white" />
    </g>
    <defs>
        <clipPath id="clip0_1_310">
            <rect width="24.02" height="24" fill="white"
                transform="matrix(1 0 0 -1 0.630005 24.6104)" />
        </clipPath>
    </defs>
</svg>
    