<svg width="20" height="25" viewBox="0 0 20 25" fill="none" xmlns="http://www.w3.org/2000/svg">
    <g clip-path="url(#clip0_1_281)">
        <path
            d="M19.0586 17.4373C19.0586 17.6784 19.0139 17.9931 18.9247 18.3815C18.8354 18.7699 18.7416 19.0757 18.6434 19.2989C18.4559 19.7454 17.9113 20.2186 17.0095 20.7186C16.1702 21.1739 15.3398 21.4016 14.5184 21.4016C14.2773 21.4016 14.0407 21.386 13.8086 21.3547C13.5764 21.3235 13.3197 21.2677 13.0385 21.1873C12.7572 21.107 12.5474 21.0422 12.409 20.9931C12.2706 20.944 12.0229 20.8525 11.6657 20.7186C11.3086 20.5846 11.0898 20.5043 11.0095 20.4775C10.1345 20.165 9.35323 19.7945 8.66573 19.3659C7.5318 18.6605 6.35323 17.6963 5.13002 16.473C3.9068 15.2498 2.94252 14.0713 2.23716 12.9373C1.80859 12.2498 1.43805 11.4686 1.12555 10.5936C1.09877 10.5132 1.01841 10.2945 0.884482 9.93733C0.750554 9.58018 0.659036 9.33241 0.609929 9.19402C0.560822 9.05563 0.496089 8.84581 0.415732 8.56456C0.335375 8.28331 0.279572 8.02661 0.248322 7.79447C0.217072 7.56233 0.201447 7.32572 0.201447 7.08465C0.201447 6.26322 0.429125 5.43286 0.884482 4.59357C1.38448 3.69179 1.8577 3.14715 2.30413 2.95965C2.52734 2.86143 2.83314 2.76768 3.22154 2.6784C3.60993 2.58911 3.92466 2.54447 4.16573 2.54447C4.29073 2.54447 4.38448 2.55786 4.44698 2.58465C4.6077 2.63822 4.8443 2.9775 5.1568 3.6025C5.25502 3.77215 5.38895 4.01322 5.55859 4.32572C5.72823 4.63822 5.88448 4.9217 6.02734 5.17616C6.1702 5.43063 6.30859 5.66947 6.44252 5.89268C6.4693 5.9284 6.54743 6.04 6.67689 6.2275C6.80636 6.415 6.90234 6.57349 6.96484 6.70295C7.02734 6.83241 7.05859 6.95965 7.05859 7.08465C7.05859 7.26322 6.93136 7.48643 6.67689 7.75429C6.42243 8.02215 6.14564 8.26768 5.84654 8.4909C5.54743 8.71411 5.27064 8.95072 5.01618 9.20072C4.76171 9.45072 4.63448 9.65608 4.63448 9.81679C4.63448 9.89715 4.6568 9.99759 4.70145 10.1181C4.74609 10.2387 4.78404 10.3302 4.81529 10.3927C4.84654 10.4552 4.90904 10.5623 5.00279 10.7141C5.09654 10.8659 5.14788 10.9507 5.1568 10.9686C5.83538 12.1918 6.61216 13.2409 7.48716 14.1159C8.36216 14.9909 9.41127 15.7677 10.6345 16.4463C10.6523 16.4552 10.7372 16.5065 10.8889 16.6003C11.0407 16.694 11.1479 16.7565 11.2104 16.7878C11.2729 16.819 11.3644 16.857 11.4849 16.9016C11.6055 16.9463 11.7059 16.9686 11.7863 16.9686C11.947 16.9686 12.1523 16.8413 12.4023 16.5869C12.6523 16.3324 12.8889 16.0556 13.1122 15.7565C13.3354 15.4574 13.5809 15.1806 13.8488 14.9262C14.1166 14.6717 14.3398 14.5445 14.5184 14.5445C14.6434 14.5445 14.7706 14.5757 14.9001 14.6382C15.0296 14.7007 15.1881 14.7967 15.3756 14.9262C15.5631 15.0556 15.6747 15.1338 15.7104 15.1605C15.9336 15.2945 16.1724 15.4329 16.4269 15.5757C16.6814 15.7186 16.9648 15.8748 17.2773 16.0445C17.5898 16.2141 17.8309 16.348 18.0006 16.4463C18.6256 16.7588 18.9648 16.9954 19.0184 17.1561C19.0452 17.2186 19.0586 17.3123 19.0586 17.4373Z"
            fill="white" />
    </g>
    <defs>
        <clipPath id="clip0_1_281">
            <rect width="18.86" height="24" fill="white"
                transform="matrix(1 0 0 -1 0.200012 24.8301)" />
        </clipPath>
    </defs>
</svg>
    