<svg width="24" height="28" viewBox="0 0 24 28" fill="none" xmlns="http://www.w3.org/2000/svg">
    <g clip-path="url(#clip0_1_272)">
        <path
            d="M14.626 16.2358C14.626 16.2358 14.724 16.114 14.9198 15.8705C15.1157 15.6269 15.2789 15.5051 15.4095 15.5051C15.5401 15.5051 16.0298 15.7261 16.8785 16.168C17.7273 16.61 18.1768 16.8762 18.227 16.9666C18.2471 17.0168 18.2572 17.0921 18.2572 17.1926C18.2572 17.5241 18.1718 17.9058 18.001 18.3377C17.8403 18.7294 17.4837 19.0584 16.9313 19.3246C16.3788 19.5908 15.8665 19.7238 15.3944 19.7238C14.8219 19.7238 13.8676 19.4125 12.5317 18.7897C11.5473 18.3377 10.6935 17.745 9.97033 17.0118C9.24711 16.2785 8.50381 15.3494 7.74042 14.2244C7.0172 13.1496 6.66062 12.1753 6.67066 11.3014V11.1809C6.7008 10.2668 7.07245 9.47328 7.78562 8.80029C8.02669 8.57931 8.28785 8.46882 8.5691 8.46882C8.62937 8.46882 8.71977 8.47635 8.84031 8.49142C8.96084 8.50649 9.05626 8.51402 9.12658 8.51402C9.31743 8.51402 9.45052 8.54667 9.52585 8.61196C9.60119 8.67725 9.67903 8.81536 9.75939 9.0263C9.83975 9.22719 10.0055 9.66916 10.2566 10.3522C10.5077 11.0352 10.6333 11.4119 10.6333 11.4822C10.6333 11.6931 10.46 11.9819 10.1135 12.3486C9.76692 12.7152 9.59365 12.9487 9.59365 13.0492C9.59365 13.1195 9.61876 13.1948 9.66899 13.2752C10.0105 14.0084 10.5228 14.6965 11.2058 15.3394C11.7683 15.8717 12.5267 16.379 13.4809 16.8611C13.6015 16.9314 13.712 16.9666 13.8124 16.9666C13.9631 16.9666 14.2343 16.723 14.626 16.2358ZM12.3509 23.4906C13.6266 23.4906 14.8495 23.2395 16.0197 22.7372C17.1899 22.235 18.1969 21.562 19.0406 20.7183C19.8844 19.8745 20.5574 18.8675 21.0596 17.6973C21.5618 16.5271 21.813 15.3042 21.813 14.0285C21.813 12.7529 21.5618 11.5299 21.0596 10.3597C20.5574 9.18952 19.8844 8.18255 19.0406 7.3388C18.1969 6.49505 17.1899 5.82206 16.0197 5.31982C14.8495 4.81759 13.6266 4.56647 12.3509 4.56647C11.0752 4.56647 9.8523 4.81759 8.6821 5.31982C7.5119 5.82206 6.50493 6.49505 5.66118 7.3388C4.81743 8.18255 4.14444 9.18952 3.6422 10.3597C3.13997 11.5299 2.88885 12.7529 2.88885 14.0285C2.88885 16.0676 3.49153 17.9158 4.69689 19.5732L3.5066 23.0838L7.15281 21.9236C8.73986 22.9683 10.4726 23.4906 12.3509 23.4906ZM7.94382 3.57206C7.94382 3.57206 8.29413 3.42139 8.99474 3.12005C9.69536 2.81871 10.8141 2.66804 12.3509 2.66804C13.8877 2.66804 15.3568 2.96938 16.758 3.57206C18.1592 4.17473 19.3671 4.98333 20.3816 5.99784C21.3961 7.01235 22.2047 8.22021 22.8074 9.62144C23.4101 11.0227 23.7114 12.4917 23.7114 14.0285C23.7114 15.5654 23.4101 17.0344 22.8074 18.4356C22.2047 19.8368 21.3961 21.0447 20.3816 22.0592C19.3671 23.0737 18.1592 23.8823 16.758 24.485C15.3568 25.0877 13.8877 25.389 12.3509 25.389C10.3922 25.389 8.55906 24.9169 6.85147 23.9727L0.568542 25.9917L2.61765 19.8896C1.53283 18.1016 0.990417 16.1479 0.990417 14.0285C0.990417 12.4917 1.29176 11.0227 1.89444 9.62144C2.49711 8.22021 3.30571 7.01235 4.32022 5.99784C5.33473 4.98333 6.54259 4.17473 7.94382 3.57206Z"
            fill="#008000" />
    </g>
    <defs>
        <clipPath id="clip0_1_272">
            <rect width="23.16" height="27" fill="white"
                transform="matrix(1 0 0 -1 0.559998 27.8298)" />
        </clipPath>
    </defs>
</svg>
    